<svg xmlns="http://www.w3.org/2000/svg" xmlns:xlink="http://www.w3.org/1999/xlink" width="40" zoomAndPan="magnify" viewBox="0 0 30 30.000001" height="40" preserveAspectRatio="xMidYMid meet" version="1.0"><defs><clipPath id="e0058ed536"><path d="M 0.484375 0 L 29.515625 0 L 29.515625 29.03125 L 0.484375 29.03125 Z M 0.484375 0 " clip-rule="nonzero"/></clipPath><clipPath id="01eed06284"><path d="M 15 0 C 6.984375 0 0.484375 6.5 0.484375 14.515625 C 0.484375 22.53125 6.984375 29.03125 15 29.03125 C 23.015625 29.03125 29.515625 22.53125 29.515625 14.515625 C 29.515625 6.5 23.015625 0 15 0 " clip-rule="nonzero"/></clipPath><clipPath id="9f03defd87"><path d="M 4.695312 4.210938 L 25.453125 4.210938 L 25.453125 24.96875 L 4.695312 24.96875 Z M 4.695312 4.210938 " clip-rule="nonzero"/></clipPath><clipPath id="420c5c5156"><path d="M 15.074219 4.210938 C 9.339844 4.210938 4.695312 8.855469 4.695312 14.589844 C 4.695312 20.320312 9.339844 24.96875 15.074219 24.96875 C 20.804688 24.96875 25.453125 20.320312 25.453125 14.589844 C 25.453125 8.855469 20.804688 4.210938 15.074219 4.210938 " clip-rule="nonzero"/></clipPath></defs><g clip-path="url(#e0058ed536)"><g clip-path="url(#01eed06284)"><path fill="#323b4b" d="M 0.484375 0 L 29.515625 0 L 29.515625 29.03125 L 0.484375 29.03125 Z M 0.484375 0 " fill-opacity="1" fill-rule="nonzero"/></g></g><g clip-path="url(#9f03defd87)"><g clip-path="url(#420c5c5156)"><path fill="#ffffff" d="M 4.695312 4.210938 L 25.453125 4.210938 L 25.453125 24.96875 L 4.695312 24.96875 Z M 4.695312 4.210938 " fill-opacity="1" fill-rule="nonzero"/></g></g></svg>